<?xml version="1.0" encoding="utf-8"?>
<!-- Generator: Adobe Illustrator 25.0.0, SVG Export Plug-In . SVG Version: 6.00 Build 0)  -->
<svg version="1.1" id="Layer_1" xmlns="http://www.w3.org/2000/svg" xmlns:xlink="http://www.w3.org/1999/xlink" x="0px" y="0px"
	 viewBox="0 0 532.19 257.88" style="enable-background:new 0 0 532.19 257.88;" xml:space="preserve">
<style type="text/css">
	.st0{fill:#FFFFFF;}
</style>
<g>
	<path class="st0" d="M244.56,68.63c-7.09,0-14.17,0.14-21.26-0.03c-12.08-0.28-21.38-8.97-21.96-21.03
		c-0.44-9.13-0.42-18.31,0.01-27.45c0.51-10.71,9.32-19.12,20.13-19.99c10.49-0.85,20.03,5.62,22.21,16.14
		c1.3,6.27,1.2,12.86,1.36,19.32c0.38,14.92,8.11,22.7,23.19,22.82c12.69,0.1,25.39-0.06,38.08,0.06
		c15.96,0.14,24.51,8.67,24.73,24.62c0.11,7.67,0.25,15.36-0.21,23.01c-0.76,12.63-9.75,21.02-21.77,20.88
		c-11.8-0.13-20.61-8.92-21.32-21.52c-0.28-5,0.03-10.04-0.21-15.05c-0.67-13.85-8.73-21.59-22.62-21.78
		C258.14,68.54,251.35,68.62,244.56,68.63z"/>
	<path class="st0" d="M222.85,83.38c11.85-0.14,22.39,10.25,22.17,21.85c-0.23,11.73-9.82,21.49-21.36,21.74
		c-12.04,0.26-22.18-9.39-22.43-21.36C200.99,93.67,210.84,83.53,222.85,83.38z"/>
	<path class="st0" d="M331.12,21.95c0.05,12-10.04,21.92-22.08,21.72c-11.58-0.19-21.21-9.89-21.39-21.55
		C287.46,10.06,297.3,0.02,309.31,0C321.47-0.02,331.07,9.64,331.12,21.95z"/>
</g>
<g>
	<path class="st0" d="M65.91,172.09L65.91,172.09c2.27,0,4.12,1.84,4.12,4.12v75.47c0,2.27-1.84,4.12-4.12,4.12h0
		c-2.27,0-4.12-1.84-4.12-4.12v-35.08H8.23v35.08c0,2.27-1.84,4.12-4.12,4.12h0c-2.27,0-4.12-1.84-4.12-4.12l0-75.47
		c0-2.27,1.84-4.12,4.12-4.12h0c2.27,0,4.12,1.84,4.12,4.12v35.08H61.8V176.2C61.8,173.93,63.64,172.09,65.91,172.09z"/>
	<path class="st0" d="M159.59,224.4v-49.52c0-1.54,1.25-2.79,2.79-2.79l0,0c1.54,0,2.79,1.25,2.79,2.79v49.38
		c0,10.51-3.16,18.62-9.49,24.34c-6.33,5.72-14.79,8.58-25.39,8.58c-10.23,0-18.53-2.83-24.9-8.51c-6.37-5.67-9.56-13.76-9.56-24.27
		v-48.2c0-2.27,1.84-4.12,4.12-4.12h0c2.27,0,4.12,1.84,4.12,4.12v48.48c0,8.65,2.49,15.3,7.46,19.95
		c4.97,4.65,11.51,6.98,19.6,6.98c8.46,0,15.32-2.32,20.58-6.98C156.96,239.98,159.59,233.24,159.59,224.4z"/>
	<path class="st0" d="M259.82,244.98c-8.14,8.14-18.48,12.21-31.04,12.21s-22.9-4.04-31.04-12.14
		c-8.14-8.09-12.21-18.46-12.21-31.11c0-12.65,4.07-23.02,12.21-31.11c8.14-8.09,18.48-12.14,31.04-12.14s22.9,4.05,31.04,12.14
		c8.14,8.09,12.21,18.46,12.21,31.11C272.02,226.49,267.95,236.84,259.82,244.98z M228.78,251.74c10.14,0,18.41-3.53,24.83-10.6
		c6.42-7.07,9.63-16.13,9.63-27.2c0-11.07-3.21-20.13-9.63-27.2c-6.42-7.07-14.7-10.6-24.83-10.6c-10.23,0-18.55,3.51-24.97,10.53
		c-6.42,7.02-9.63,16.11-9.63,27.27s3.21,20.25,9.63,27.27C210.22,248.23,218.55,251.74,228.78,251.74z"/>
	<path class="st0" d="M355.6,172.09L355.6,172.09c2.02,0,3.38,2.09,2.55,3.93l-36.25,80.78c-0.3,0.66-0.95,1.08-1.67,1.08l0,0
		c-0.72,0-1.38-0.43-1.67-1.08l-35.11-78.81c-1.24-2.77,0.79-5.9,3.83-5.9l0,0c1.67,0,3.18,0.99,3.84,2.52l30.71,70.58l31.21-71.42
		C353.48,172.75,354.49,172.09,355.6,172.09z"/>
	<path class="st0" d="M384.6,250.35h41.5c1.5,0,2.72,1.22,2.72,2.72v0c0,1.5-1.22,2.72-2.72,2.72h-46.31
		c-1.89,0-3.42-1.53-3.42-3.42v-76.85c0-1.89,1.53-3.42,3.42-3.42h44.91c1.5,0,2.72,1.22,2.72,2.72v0c0,1.5-1.22,2.72-2.72,2.72
		H384.6v33.76h31.74c1.5,0,2.72,1.22,2.72,2.72v0c0,1.5-1.22,2.72-2.72,2.72H384.6V250.35z"/>
	<path class="st0" d="M510.01,253.37l0.09,0.44c0.27,1.32-0.59,2.62-1.91,2.88c-1.64,0.32-3.12,0.37-4.46,0.15
		c-1.95-0.33-3.61-0.98-4.95-1.95c-1.35-0.98-2.56-2.35-3.63-4.12c-1.07-1.76-2.02-3.67-2.86-5.72c-0.84-2.04-1.67-4.28-2.51-6.7
		c-0.37-1.12-0.65-1.95-0.84-2.51c-2.05-5.86-4.56-10.27-7.53-13.25c-2.98-2.98-7.44-4.46-13.39-4.46h-11.58v33.55
		c0,2.27-1.84,4.12-4.12,4.12l0,0c-2.27,0-4.12-1.84-4.12-4.12v-76.1c0-1.93,1.56-3.49,3.49-3.49h23.16c8.74,0,15.51,2.07,20.3,6.21
		c4.79,4.14,7.18,9.74,7.18,16.81c0,5.39-1.58,9.97-4.74,13.74c-3.16,3.77-7.63,6.44-13.39,8.02c5.86,3.07,10.09,8.65,12.69,16.74
		c0.37,1.02,0.77,2.23,1.19,3.63s0.74,2.54,0.98,3.42c0.23,0.88,0.56,1.88,0.98,3c0.42,1.12,0.77,1.98,1.05,2.58
		c0.28,0.61,0.65,1.35,1.12,2.23c0.46,0.89,0.91,1.44,1.33,1.67c0.42,0.23,0.95,0.58,1.6,1.05c0.65,0.47,1.3,0.61,1.95,0.42
		l0.02-0.01C508.42,251.22,509.73,252.02,510.01,253.37z M456.44,212.68h17.44c6.42,0,11.35-1.58,14.79-4.74
		c3.44-3.16,5.16-7.44,5.16-12.83c0-5.39-1.72-9.67-5.16-12.83c-3.44-3.16-8.37-4.74-14.79-4.74h-17.44V212.68z"/>
	<path class="st0" d="M527.31,257.18c-1.49,0-2.7-0.47-3.63-1.39c-0.93-0.93-1.4-2.14-1.4-3.63c0-1.49,0.46-2.67,1.4-3.56
		c0.93-0.88,2.14-1.33,3.63-1.33c1.4,0,2.56,0.44,3.49,1.33c0.93,0.88,1.4,2.07,1.4,3.56c0,1.49-0.47,2.7-1.4,3.63
		C529.86,256.72,528.7,257.18,527.31,257.18z"/>
</g>
</svg>
